<svg width="29" height="30" viewBox="0 0 29 30" fill="none" xmlns="http://www.w3.org/2000/svg">
<path fill-rule="evenodd" clip-rule="evenodd" d="M5.68222 12.5L13.2584 4.92383L14.2012 5.86664L6.62503 13.4428L5.68222 12.5Z" fill="#1C3D70"/>
<path fill-rule="evenodd" clip-rule="evenodd" d="M8.19626 15.014L15.7724 7.43787L16.7152 8.38068L9.13907 15.9568L8.19626 15.014Z" fill="#1C3D70"/>
<path fill-rule="evenodd" clip-rule="evenodd" d="M13.5389 20.3567L21.1151 12.7805L22.0579 13.7233L14.4817 21.2995L13.5389 20.3567Z" fill="#1C3D70"/>
<path fill-rule="evenodd" clip-rule="evenodd" d="M16.0529 22.8707L23.6291 15.2946L24.5719 16.2374L16.9958 23.8135L16.0529 22.8707Z" fill="#1C3D70"/>
<path fill-rule="evenodd" clip-rule="evenodd" d="M16.053 22.8708C13.4379 25.486 9.20739 25.4954 6.60389 22.8919C4.0004 20.2884 4.00982 16.0579 6.62494 13.4427L5.68213 12.4999C2.54399 15.6381 2.53268 20.7147 5.65688 23.8389C8.78107 26.9631 13.8577 26.9518 16.9958 23.8136L16.053 22.8708Z" fill="#1C3D70"/>
<path fill-rule="evenodd" clip-rule="evenodd" d="M21.1151 12.7805L22.0579 13.7233C24.4986 11.2825 24.5074 7.33404 22.0775 4.90411C19.6476 2.47418 15.6991 2.48297 13.2583 4.92375L14.2011 5.86656C16.1189 3.94881 19.2213 3.9419 21.1305 5.85113C23.0397 7.76036 23.0328 10.8627 21.1151 12.7805Z" fill="#1C3D70"/>
<path fill-rule="evenodd" clip-rule="evenodd" d="M8.19653 15.0143C6.45312 16.7578 6.44684 19.5781 8.1825 21.3138C9.91817 23.0494 12.7385 23.0431 14.4819 21.2997L13.5391 20.3569C12.3187 21.5773 10.3445 21.5817 9.12952 20.3667C7.91456 19.1518 7.91895 17.1775 9.13934 15.9572L8.19653 15.0143Z" fill="#1C3D70"/>
</svg>
